<svg xmlns="http://www.w3.org/2000/svg" viewBox="0 0 428.09 428"><title>logo</title><path d="M676.91,285.87h-354a37,37,0,0,0-37,37v354a37,37,0,0,0,37,37h280v-74a37,37,0,0,1,37-37h74v-280A37,37,0,0,0,676.91,285.87Z" transform="translate(-285.91 -285.87)" style="fill:#d83535"/><path d="M676.91,285.87h-354a37,37,0,0,0-37,37v354a37,37,0,0,0,37,37h280v-74a37,37,0,0,1,37-37h74v-280A37,37,0,0,0,676.91,285.87Z" transform="translate(-285.91 -285.87)" style="fill:#d83535"/><path d="M602.91,639.87v74l111-111h-74A37,37,0,0,0,602.91,639.87Z" transform="translate(-285.91 -285.87)" style="fill:#bf2626"/><path d="M602.91,639.87v74l111-111h-74A37,37,0,0,0,602.91,639.87Z" transform="translate(-285.91 -285.87)" style="fill:#bf2626"/><path d="M423.41,483h19.08q22.68,0,22.68-22.2,0-8.64-5.4-14.1t-15.24-5.46a21.9,21.9,0,0,0-14,4.68,14.28,14.28,0,0,0-5.94,11.64H384.16a41.4,41.4,0,0,1,7.68-24.6q7.68-10.8,21.3-16.86a72.84,72.84,0,0,1,29.95-6.06q29.16,0,45.84,13.32T505.61,460a36.91,36.91,0,0,1-6.9,21.3q-6.9,10-20.1,16.26,13.92,5,21.84,15.3t7.92,25.38q0,23.41-18,37.45t-47.28,14a77.5,77.5,0,0,1-31.87-6.54Q396.52,576.62,389,565a47.14,47.14,0,0,1-7.56-26.35h40.68q0,8.05,6.49,13.93a22.86,22.86,0,0,0,16,5.88q10.68,0,17-6a19.82,19.82,0,0,0,6.36-15.18q0-13.2-6.6-18.72t-18.24-5.52H423.41Z" transform="translate(-285.91 -285.87)" style="fill:#fff"/><path d="M423.41,483h19.08q22.68,0,22.68-22.2,0-8.64-5.4-14.1t-15.24-5.46a21.9,21.9,0,0,0-14,4.68,14.28,14.28,0,0,0-5.94,11.64H384.16a41.4,41.4,0,0,1,7.68-24.6q7.68-10.8,21.3-16.86a72.84,72.84,0,0,1,29.95-6.06q29.16,0,45.84,13.32T505.61,460a36.91,36.91,0,0,1-6.9,21.3q-6.9,10-20.1,16.26,13.92,5,21.84,15.3t7.92,25.38q0,23.41-18,37.45t-47.28,14a77.5,77.5,0,0,1-31.87-6.54Q396.52,576.62,389,565a47.14,47.14,0,0,1-7.56-26.35h40.68q0,8.05,6.49,13.93a22.86,22.86,0,0,0,16,5.88q10.68,0,17-6a19.82,19.82,0,0,0,6.36-15.18q0-13.2-6.6-18.72t-18.24-5.52H423.41Z" transform="translate(-285.91 -285.87)" style="fill:#fff"/><path d="M618.41,587.3H577.85V458.17L538,469.81V439.09l76.68-26.52h3.72Z" transform="translate(-285.91 -285.87)" style="fill:#fff"/><path d="M618.41,587.3H577.85V458.17L538,469.81V439.09l76.68-26.52h3.72Z" transform="translate(-285.91 -285.87)" style="fill:#fff"/><path d="M37.09.13h354a37,37,0,0,1,37,37v0a0,0,0,0,1,0,0H.09a0,0,0,0,1,0,0v0A37,37,0,0,1,37.09.13Z" style="fill:#bf2626"/><path d="M37.09.13h354a37,37,0,0,1,37,37v0a0,0,0,0,1,0,0H.09a0,0,0,0,1,0,0v0A37,37,0,0,1,37.09.13Z" style="fill:#bf2626"/></svg>