<svg xmlns="http://www.w3.org/2000/svg" viewBox="0 0 888 205">
  <title>logo</title>
  <path
    d="M249.28,100H79.72A17.72,17.72,0,0,0,62,117.72V287.28A17.72,17.72,0,0,0,79.72,305H213.83V269.56a17.73,17.73,0,0,1,17.73-17.73H267V117.72A17.72,17.72,0,0,0,249.28,100Z"
    transform="translate(-62 -100)" style="fill:#6B76FF" />
  <path
    d="M249.28,100H79.72A17.72,17.72,0,0,0,62,117.72V287.28A17.72,17.72,0,0,0,79.72,305H213.83V269.56a17.73,17.73,0,0,1,17.73-17.73H267V117.72A17.72,17.72,0,0,0,249.28,100Z"
    transform="translate(-62 -100)" style="fill:#6B76FF" />
  <path d="M213.83,269.56V305L267,251.83H231.56A17.73,17.73,0,0,0,213.83,269.56Z" transform="translate(-62 -100)"
    style="fill:#465fdb" />
  <path d="M213.83,269.56V305L267,251.83H231.56A17.73,17.73,0,0,0,213.83,269.56Z" transform="translate(-62 -100)"
    style="fill:#465fdb" />
  <path
    d="M128.1,194.36h9q10.68,0,10.67-10.45a9,9,0,0,0-2.54-6.64q-2.53-2.57-7.17-2.57a10.32,10.32,0,0,0-6.59,2.2,6.76,6.76,0,0,0-2.8,5.48h-19.4a19.8,19.8,0,0,1,3.68-11.77,24.17,24.17,0,0,1,10.19-8.06,34.76,34.76,0,0,1,14.33-2.9q14,0,21.93,6.37t8,17.53a17.64,17.64,0,0,1-3.3,10.19,23.66,23.66,0,0,1-9.62,7.78,22.39,22.39,0,0,1,10.45,7.32A19.37,19.37,0,0,1,168.68,221a21.58,21.58,0,0,1-8.61,17.92q-8.62,6.72-22.62,6.7a37,37,0,0,1-15.25-3.13,23.69,23.69,0,0,1-10.63-8.68A22.54,22.54,0,0,1,108,221.18h19.52a8.82,8.82,0,0,0,3.16,6.77,11.08,11.08,0,0,0,7.78,2.86,11.52,11.52,0,0,0,8.26-2.91,9.66,9.66,0,0,0,3.1-7.39q0-6.42-3.21-9.1t-8.87-2.68H128.1Z"
    transform="translate(-62 -100)" style="fill:#fff" />
  <path
    d="M128.1,194.36h9q10.68,0,10.67-10.45a9,9,0,0,0-2.54-6.64q-2.53-2.57-7.17-2.57a10.32,10.32,0,0,0-6.59,2.2,6.76,6.76,0,0,0-2.8,5.48h-19.4a19.8,19.8,0,0,1,3.68-11.77,24.17,24.17,0,0,1,10.19-8.06,34.76,34.76,0,0,1,14.33-2.9q14,0,21.93,6.37t8,17.53a17.64,17.64,0,0,1-3.3,10.19,23.66,23.66,0,0,1-9.62,7.78,22.39,22.39,0,0,1,10.45,7.32A19.37,19.37,0,0,1,168.68,221a21.58,21.58,0,0,1-8.61,17.92q-8.62,6.72-22.62,6.7a37,37,0,0,1-15.25-3.13,23.69,23.69,0,0,1-10.63-8.68A22.54,22.54,0,0,1,108,221.18h19.52a8.82,8.82,0,0,0,3.16,6.77,11.08,11.08,0,0,0,7.78,2.86,11.52,11.52,0,0,0,8.26-2.91,9.66,9.66,0,0,0,3.1-7.39q0-6.42-3.21-9.1t-8.87-2.68H128.1Z"
    transform="translate(-62 -100)" style="fill:#fff" />
  <path d="M221.5,244.65H201.86V182.8l-18.68,5.58V173.55l36.54-12.72h1.78Z" transform="translate(-62 -100)"
    style="fill:#fff" />
  <path d="M221.5,244.65H201.86V182.8l-18.68,5.58V173.55l36.54-12.72h1.78Z" transform="translate(-62 -100)"
    style="fill:#fff" />
  <path d="M79.92,100H249.48a17.72,17.72,0,0,1,17.72,17.72H62.2A17.72,17.72,0,0,1,79.92,100Z"
    transform="translate(-62 -100)" style="fill:#465fdb" />
  <path d="M79.92,100H249.48a17.72,17.72,0,0,1,17.72,17.72H62.2A17.72,17.72,0,0,1,79.92,100Z"
    transform="translate(-62 -100)" style="fill:#465fdb" />
  <path
    d="M331.67,172.58l.4,6.45q6.51-7.59,17.81-7.59,12.38,0,16.95,9.47,6.74-9.47,18.95-9.47,10.22,0,15.21,5.65t5.11,16.67v40.58H392.23V194.16c0-3.92-.86-6.8-2.57-8.62s-4.55-2.74-8.5-2.74a11.53,11.53,0,0,0-7.74,2.54,13.43,13.43,0,0,0-4.19,6.65l0,42.35H355.41V193.7q-.29-10.9-11.13-10.9-8.32,0-11.81,6.79v44.75H318.6V172.58Z"
    transform="translate(-62 -100)" style="fill:#565454" />
  <path
    d="M442,214.48l12.55-41.9h14.79L444.74,243.7q-5.64,15.59-19.18,15.58a24.61,24.61,0,0,1-6.67-1V247.47l2.62.17q5.25,0,7.91-1.91c1.77-1.28,3.16-3.41,4.19-6.42l2-5.3-21.69-61.43h14.95Z"
    transform="translate(-62 -100)" style="fill:#565454" />
  <path
    d="M531.73,224.41a12.53,12.53,0,0,0,8.62-3,10.32,10.32,0,0,0,3.65-7.47h13.07a20.37,20.37,0,0,1-3.59,10.75,23.52,23.52,0,0,1-9.14,7.91,27.21,27.21,0,0,1-12.44,2.91q-13,0-20.55-8.39t-7.59-23.17v-1.43q0-14.1,7.54-22.57t20.54-8.48q11,0,18,6.42t7.27,16.87H544a12.73,12.73,0,0,0-3.62-8.74,11.69,11.69,0,0,0-8.65-3.42q-6.74,0-10.39,4.88t-3.71,14.81v2.23q0,10,3.63,15T531.73,224.41Z"
    transform="translate(-62 -100)" style="fill:#565454" />
  <path
    d="M604.45,234.34a21.46,21.46,0,0,1-1.6-5.77,21.59,21.59,0,0,1-16.21,6.91q-9.3,0-15.18-5.31A17,17,0,0,1,565.58,217q0-9.87,7.33-15.15t21-5.28h8.5v-4.05a10.81,10.81,0,0,0-2.68-7.68Q597,182,591.55,182a12.19,12.19,0,0,0-7.76,2.37,7.32,7.32,0,0,0-3,6H566.89a15.33,15.33,0,0,1,3.37-9.5,22.46,22.46,0,0,1,9.16-6.94,32.24,32.24,0,0,1,12.93-2.51q10.85,0,17.29,5.45t6.62,15.33v27.85q0,8.34,2.34,13.3v1Zm-15.24-10a15.69,15.69,0,0,0,7.73-2,13.34,13.34,0,0,0,5.45-5.36V205.34h-7.47q-7.71,0-11.59,2.69a8.69,8.69,0,0,0-3.88,7.59A8.1,8.1,0,0,0,582.1,222,10.28,10.28,0,0,0,589.21,224.35Z"
    transform="translate(-62 -100)" style="fill:#565454" />
  <path d="M645.54,234.34H631.67V146.67h13.87Z" transform="translate(-62 -100)" style="fill:#565454" />
  <path
    d="M687.84,235.48q-13.19,0-21.38-8.3t-8.19-22.12v-1.71a37,37,0,0,1,3.57-16.53,27.17,27.17,0,0,1,10-11.33,26.48,26.48,0,0,1,14.38-4.05q12.62,0,19.49,8.05t6.88,22.77v5.59H672.26q.63,7.65,5.11,12.11a15.35,15.35,0,0,0,11.27,4.45,18.77,18.77,0,0,0,15.52-7.71l7.48,7.14a25,25,0,0,1-9.9,8.59A31.08,31.08,0,0,1,687.84,235.48Zm-1.66-52.91a11.68,11.68,0,0,0-9.21,4q-3.51,4-4.48,11.14h26.42v-1q-.45-7-3.71-10.53T686.18,182.57Z"
    transform="translate(-62 -100)" style="fill:#565454" />
  <path
    d="M736.24,172.58l.4,7.14a22.21,22.21,0,0,1,18-8.28q19.29,0,19.64,22.09v40.81H760.39v-40q0-5.88-2.54-8.71t-8.31-2.82q-8.38,0-12.5,7.59v44H723.17V172.58Z"
    transform="translate(-62 -100)" style="fill:#565454" />
  <path
    d="M785.79,203q0-14.26,6.62-22.91a21.2,21.2,0,0,1,17.75-8.65q9.81,0,15.87,6.85V146.67H839.9v87.67H827.34l-.69-6.39q-6.21,7.53-16.61,7.53a21.09,21.09,0,0,1-17.55-8.73Q785.79,218,785.79,203Zm13.87,1.2q0,9.42,3.62,14.7a11.76,11.76,0,0,0,10.3,5.28A13.11,13.11,0,0,0,826,216.59V190.22q-3.82-7.42-12.33-7.42a11.86,11.86,0,0,0-10.39,5.33Q799.65,193.47,799.66,204.2Z"
    transform="translate(-62 -100)" style="fill:#565454" />
  <path
    d="M891.27,234.34a21.09,21.09,0,0,1-1.6-5.77,21.59,21.59,0,0,1-16.21,6.91q-9.3,0-15.18-5.31A17,17,0,0,1,852.4,217q0-9.87,7.33-15.15t21-5.28h8.5v-4.05a10.81,10.81,0,0,0-2.68-7.68q-2.68-2.88-8.16-2.88a12.24,12.24,0,0,0-7.77,2.37,7.34,7.34,0,0,0-3,6H853.71a15.33,15.33,0,0,1,3.37-9.5,22.46,22.46,0,0,1,9.16-6.94,32.24,32.24,0,0,1,12.93-2.51q10.83,0,17.29,5.45t6.62,15.33v27.85q0,8.34,2.34,13.3v1Zm-15.24-10a15.69,15.69,0,0,0,7.73-2,13.34,13.34,0,0,0,5.45-5.36V205.34h-7.48c-5.13,0-9,.9-11.58,2.69a8.69,8.69,0,0,0-3.88,7.59,8.1,8.1,0,0,0,2.65,6.36A10.28,10.28,0,0,0,876,224.35Z"
    transform="translate(-62 -100)" style="fill:#565454" />
  <path
    d="M949.94,185.25a34.75,34.75,0,0,0-5.65-.45q-9.52,0-12.84,7.3v42.24H917.58V172.58h13.24l.34,6.91q5-8.06,13.93-8.05a13,13,0,0,1,4.91.8Z"
    transform="translate(-62 -100)" style="fill:#565454" />
</svg>
